<svg width="54" height="50" viewBox="0 0 54 50" fill="none" xmlns="http://www.w3.org/2000/svg">
<g clip-path="url(#clip0_196_14)">
<path fill-rule="evenodd" clip-rule="evenodd" d="M28.0175 19.9789L23.0013 11.6055L16.0508 23.208L24.0764 36.6055L27.5517 30.8043C29.4634 27.6132 29.6729 22.7422 28.0175 19.9789Z" fill="#DB3B17"/>
<path fill-rule="evenodd" clip-rule="evenodd" d="M12.9698 11.6055H23.0024L16.0518 23.2081H0L3.47538 17.4067C5.38679 14.2162 9.65895 11.6055 12.9698 11.6055Z" fill="#EF5924"/>
<path fill-rule="evenodd" clip-rule="evenodd" d="M35.9757 0H46.0081L39.0573 11.6026H23.0059L26.4808 5.80141C28.3927 2.61027 32.6648 0 35.9757 0Z" fill="#F6874B"/>
<path fill-rule="evenodd" clip-rule="evenodd" d="M51.0197 8.37347L46.0035 0L39.0527 11.6025L47.0788 25L50.5542 19.1989C52.4656 16.0077 52.6749 11.1366 51.0197 8.37347Z" fill="#F27243"/>
<path fill-rule="evenodd" clip-rule="evenodd" d="M52.0937 33.3735L47.0775 25L40.127 36.6024L48.1526 50L51.628 44.1988C53.5396 41.0081 53.7494 36.1369 52.0937 33.3735Z" fill="#AF2322"/>
<path fill-rule="evenodd" clip-rule="evenodd" d="M37.0462 25H47.0786L40.128 36.6024H24.0762L27.5516 30.8012C29.4632 27.6103 33.7356 25 37.0462 25Z" fill="#D12524"/>
</g>
<defs>
<clipPath id="clip0_196_14">
<rect width="54" height="50" fill="white"/>
</clipPath>
</defs>
</svg>
