<svg width="285" height="50" viewBox="0 0 285 50" fill="none" xmlns="http://www.w3.org/2000/svg">
<g clip-path="url(#clip0_196_3)">
<path fill-rule="evenodd" clip-rule="evenodd" d="M28.0175 19.9789L23.0013 11.6055L16.0508 23.208L24.0764 36.6055L27.5517 30.8043C29.4634 27.6132 29.6729 22.7422 28.0175 19.9789Z" fill="#DB3B17"/>
<path fill-rule="evenodd" clip-rule="evenodd" d="M12.9698 11.6055H23.0024L16.0518 23.2081H0L3.47538 17.4067C5.38679 14.2162 9.65895 11.6055 12.9698 11.6055Z" fill="#EF5924"/>
<path fill-rule="evenodd" clip-rule="evenodd" d="M35.9757 0H46.0081L39.0573 11.6026H23.0059L26.4808 5.80141C28.3927 2.61027 32.6648 0 35.9757 0Z" fill="#F6874B"/>
<path fill-rule="evenodd" clip-rule="evenodd" d="M51.0197 8.37347L46.0035 0L39.0527 11.6025L47.0788 25L50.5542 19.1989C52.4656 16.0077 52.6749 11.1366 51.0197 8.37347Z" fill="#F27243"/>
<path fill-rule="evenodd" clip-rule="evenodd" d="M52.0937 33.3735L47.0775 25L40.127 36.6024L48.1526 50L51.628 44.1988C53.5396 41.0081 53.7494 36.1369 52.0937 33.3735Z" fill="#AF2322"/>
<path fill-rule="evenodd" clip-rule="evenodd" d="M37.0462 25H47.0786L40.128 36.6024H24.0762L27.5516 30.8012C29.4632 27.6103 33.7356 25 37.0462 25Z" fill="#D12524"/>
<path fill-rule="evenodd" clip-rule="evenodd" d="M77.6966 28.9659L76.0814 24.5797H68.8878L67.2729 28.9659H62.2812L70.2677 9.49684H75.2885L83.2752 28.9659H77.6966ZM73.2041 15.6092C72.9693 14.9112 72.8028 14.3264 72.7049 13.8547C72.6267 13.5907 72.5778 13.355 72.558 13.1471H72.4995C72.4802 13.3734 72.431 13.6094 72.3527 13.8547C72.2158 14.345 72.0397 14.9301 71.8244 15.6092L69.5927 22.0896H75.4063L73.2041 15.6092ZM96.6082 28.9659V18.2407C96.6082 17.4487 96.2999 16.8731 95.6885 16.5148C95.0767 16.156 94.3084 15.9769 93.3933 15.9769C92.9478 15.9769 92.5173 16.01 92.111 16.0758C91.7001 16.142 91.3624 16.2223 91.0885 16.3165V28.9659H86.0969V14.4492C86.9779 14.1284 88.0688 13.8596 89.3612 13.6427C90.6578 13.4258 92.0575 13.3171 93.5696 13.3171C96.1782 13.3171 98.1697 13.7085 99.5398 14.4915C100.915 15.2743 101.6 16.5053 101.6 18.1846V28.9659H96.6082ZM121.481 29.1354C121.481 30.2105 121.27 31.1446 120.849 31.9369C120.428 32.7293 119.846 33.3848 119.102 33.9036C118.358 34.4226 117.482 34.8138 116.474 35.078C115.467 35.342 114.366 35.474 113.171 35.474C111.644 35.474 110.279 35.3563 109.075 35.1205C107.871 34.8848 106.907 34.6252 106.183 34.3423L107.446 31.5972C108.013 31.8426 108.752 32.0549 109.662 32.234C110.573 32.4129 111.497 32.5028 112.437 32.5028C113.905 32.5028 114.957 32.2294 115.593 31.6823C116.23 31.1352 116.548 30.3993 116.548 29.4751V28.626C116.215 28.7771 115.755 28.8997 115.168 28.9944C114.581 29.0885 113.886 29.1356 113.083 29.1356C111.967 29.1356 110.94 28.9613 110 28.6122C109.061 28.2629 108.253 27.7678 107.578 27.1266C106.902 26.4852 106.374 25.7068 105.992 24.792C105.611 23.877 105.419 22.8444 105.419 21.6934C105.419 20.4293 105.615 19.2834 106.007 18.2554C106.398 17.227 106.99 16.3453 107.783 15.6092C108.576 14.8735 109.565 14.3073 110.749 13.9113C111.933 13.5151 113.318 13.3171 114.904 13.3171C116.293 13.3171 117.575 13.4258 118.75 13.6427C119.925 13.8596 120.835 14.1284 121.481 14.4492V29.1354ZM116.548 16.1753C116.332 16.0806 116.068 15.9957 115.755 15.9205C115.442 15.8451 115.06 15.8074 114.61 15.8074C113.22 15.8074 112.183 16.2883 111.497 17.2504C110.812 18.2126 110.469 19.6182 110.469 21.4669C110.469 24.9758 111.811 26.7302 114.492 26.7302C114.884 26.7302 115.265 26.6975 115.637 26.6313C116.009 26.5651 116.312 26.4756 116.548 26.3627L116.548 16.1753ZM141.185 28.23C140.403 28.5506 139.365 28.8197 138.083 29.0365C136.796 29.2534 135.294 29.3617 133.566 29.3617C130.938 29.3617 129.005 28.9139 127.772 28.0178C126.534 27.1216 125.917 25.768 125.917 23.9568V13.7129H130.909V24.1879C130.909 24.8106 131.124 25.3439 131.55 25.7822C131.98 26.2254 132.69 26.4473 133.683 26.4473C134.226 26.4473 134.716 26.4096 135.142 26.3339C135.572 26.2583 135.92 26.1642 136.194 26.0509V13.7129H141.185V28.23ZM145.681 28.9659V6.75195H150.672V28.9659H145.681ZM169.643 28.23C168.879 28.5697 167.886 28.8431 166.662 29.0506C165.439 29.258 164.034 29.3617 162.448 29.3617C159.767 29.3617 157.761 28.9468 156.429 28.1167C155.098 27.2865 154.433 26.0886 154.433 24.5227C154.433 23.504 154.716 22.6644 155.284 22.0043C155.852 21.3439 156.616 20.8064 157.574 20.3914C158.534 19.976 159.655 19.6603 160.936 19.4434C162.219 19.2261 163.564 19.0614 164.974 18.9481V18.1841C164.974 17.3351 164.66 16.7549 164.034 16.4437C163.407 16.1324 162.566 15.9767 161.509 15.9767C160.628 15.9767 159.747 16.0664 158.866 16.2455C157.985 16.4246 157.241 16.6369 156.635 16.8823L155.578 14.449C156.224 14.2036 157.134 13.9536 158.308 13.6988C159.483 13.444 160.863 13.3169 162.448 13.3169C163.486 13.3169 164.445 13.4157 165.325 13.6138C166.206 13.8122 166.965 14.1326 167.601 14.5762C168.238 15.0193 168.737 15.5995 169.099 16.3165C169.46 17.0336 169.642 17.901 169.642 18.92L169.643 28.23ZM164.974 20.8724C164.113 20.9481 163.32 21.0516 162.595 21.184C161.871 21.316 161.255 21.5092 160.745 21.764C160.237 22.0188 159.84 22.3534 159.556 22.7687C159.273 23.184 159.131 23.7118 159.131 24.3534C159.131 25.2779 159.454 25.9478 160.1 26.3629C160.745 26.7778 161.626 26.9852 162.742 26.9852C163.232 26.9852 163.662 26.9475 164.034 26.872C164.406 26.7964 164.72 26.7023 164.974 26.589V20.8724ZM183.152 16.4016C182.466 16.1942 181.738 16.0808 180.964 16.062C180.191 16.0431 179.56 16.1376 179.07 16.3453V28.9661H174.079V14.4494C175.004 14.0907 176.08 13.8126 177.313 13.6142C178.542 13.4162 180.049 13.3173 181.831 13.3173C182.222 13.3173 182.633 13.3265 183.064 13.3458C183.495 13.3644 183.837 13.3929 184.092 13.4307L183.152 16.4016ZM228.607 9.35541C228.607 9.92136 228.337 10.4073 227.799 10.8127C227.261 11.2184 226.61 11.4208 225.847 11.4208C225.083 11.4208 224.437 11.2182 223.909 10.8127C223.38 10.4073 223.116 9.92136 223.116 9.35541C223.116 8.78924 223.38 8.30355 223.909 7.89789C224.437 7.49244 225.083 7.28962 225.847 7.28962C226.61 7.28962 227.261 7.49244 227.799 7.89789C228.337 8.30355 228.607 8.78924 228.607 9.35541ZM223.38 28.9659V13.7131H228.372V28.9659H223.38ZM243.408 28.9659V18.2407C243.408 17.4487 243.099 16.8731 242.488 16.5148C241.876 16.156 241.108 15.9769 240.193 15.9769C239.747 15.9769 239.317 16.01 238.91 16.0758C238.499 16.142 238.161 16.2223 237.888 16.3165V28.9659H232.896V14.4492C233.777 14.1284 234.868 13.8596 236.16 13.6427C237.457 13.4258 238.857 13.3171 240.369 13.3171C242.977 13.3171 244.969 13.7085 246.339 14.4915C247.714 15.2743 248.399 16.5053 248.399 18.1846V28.9659H243.408ZM268.28 28.23C267.438 28.5885 266.455 28.8666 265.329 29.0648C264.204 29.2628 262.848 29.3617 261.263 29.3617C258.404 29.3617 256.183 28.7015 254.597 27.3812C253.012 26.0607 252.219 24.089 252.219 21.4667C252.219 20.2403 252.42 19.1274 252.821 18.1275C253.222 17.1276 253.785 16.2786 254.509 15.5807C255.234 14.8825 256.1 14.3448 257.108 13.9674C258.116 13.5903 259.227 13.4015 260.44 13.4015C261.047 13.4015 261.6 13.43 262.099 13.4863C262.598 13.5427 263.014 13.6089 263.347 13.6844V6.75195H268.28V28.23ZM263.347 15.9771C262.838 15.864 262.261 15.8076 261.615 15.8076C260.851 15.8076 260.196 15.9442 259.648 16.2179C259.1 16.4913 258.649 16.8687 258.297 17.3496C257.944 17.8309 257.686 18.406 257.519 19.0757C257.353 19.7458 257.269 20.4766 257.269 21.2691C257.269 23.0233 257.592 24.3578 258.238 25.2733C258.885 26.1883 259.932 26.6455 261.38 26.6455C261.791 26.6455 262.168 26.6129 262.511 26.5464C262.853 26.4802 263.132 26.4006 263.347 26.3059L263.347 15.9771ZM284.403 24.4379C284.403 25.0985 284.236 25.7257 283.904 26.3199C283.571 26.9144 283.096 27.4376 282.479 27.8904C281.863 28.343 281.114 28.7015 280.233 28.9657C279.352 29.2297 278.364 29.3617 277.268 29.3617C276.132 29.3617 275.07 29.2486 274.082 29.0269C273.093 28.8006 272.315 28.5412 271.748 28.2395L272.981 25.5415C273.353 25.768 273.872 25.9756 274.537 26.1642C275.202 26.3526 275.878 26.4473 276.563 26.4473C277.307 26.4473 277.938 26.2631 278.457 25.8954C278.975 25.5272 279.235 25.0843 279.235 24.5749C279.235 24.0653 279.064 23.6599 278.721 23.3582C278.378 23.0516 277.948 22.792 277.429 22.5751C276.91 22.358 276.353 22.1506 275.756 21.9526C275.158 21.7546 274.6 21.4998 274.082 21.1886C273.563 20.8724 273.132 20.4716 272.79 19.9811C272.448 19.4908 272.276 18.8494 272.276 18.0523C272.276 17.4296 272.423 16.8356 272.717 16.265C273.01 15.6988 273.431 15.1943 273.979 14.7509C274.527 14.3027 275.193 13.9538 275.976 13.699C276.759 13.4442 277.63 13.3171 278.589 13.3171C279.763 13.3171 280.767 13.416 281.598 13.614C282.43 13.8124 283.209 14.0902 283.933 14.4492L282.729 16.8825C282.455 16.7128 282.049 16.5336 281.511 16.3451C280.972 16.1563 280.371 16.0617 279.705 16.0617C278.922 16.0617 278.31 16.2315 277.87 16.5711C277.429 16.9108 277.209 17.3162 277.209 17.7881C277.209 18.2784 277.385 18.6698 277.738 18.9621C278.09 19.2544 278.535 19.514 279.074 19.7405C279.612 19.9668 280.189 20.1837 280.806 20.3914C281.422 20.5988 282 20.8676 282.538 21.1978C283.077 21.5281 283.522 21.9478 283.874 22.4571C284.226 22.9667 284.403 23.6268 284.403 24.4379Z" fill="white"/>
<path fill-rule="evenodd" clip-rule="evenodd" d="M151.44 37.8686C151.44 38.3363 151.377 38.7742 151.251 39.1821C151.125 39.5904 150.923 39.9476 150.644 40.2526C150.366 40.5583 150.007 40.7997 149.568 40.9773C149.128 41.1553 148.594 41.2441 147.967 41.2441C147.462 41.2441 147.015 41.208 146.624 41.1365C146.232 41.0648 145.901 40.9762 145.629 40.8701V34.9238C145.901 34.8179 146.221 34.7288 146.59 34.6571C146.958 34.5854 147.388 34.5497 147.88 34.5497C148.507 34.5497 149.047 34.6339 149.5 34.8023C149.952 34.9705 150.321 35.2027 150.606 35.4989C150.89 35.7947 151.101 36.1451 151.236 36.5508C151.372 36.9556 151.44 37.3952 151.44 37.8686ZM149.684 37.8406C149.684 37.0306 149.542 36.4398 149.257 36.0688C148.973 35.698 148.539 35.5127 147.957 35.5127C147.834 35.5127 147.718 35.5204 147.608 35.536C147.498 35.5513 147.404 35.575 147.327 35.6059V40.1313C147.398 40.1559 147.493 40.1793 147.613 40.2015C147.733 40.2232 147.854 40.2337 147.977 40.2337C148.268 40.2337 148.52 40.1886 148.733 40.0984C148.947 40.0079 149.125 39.866 149.267 39.673C149.409 39.4799 149.515 39.2321 149.583 38.9297C149.65 38.6278 149.684 38.2644 149.684 37.8406ZM154.246 39.0808C154.376 39.8803 154.899 40.2809 155.818 40.2809C156.18 40.2809 156.505 40.2513 156.793 40.1923C157.081 40.1329 157.308 40.0688 157.476 40.0004L157.816 40.8729C157.596 40.96 157.307 41.0426 156.948 41.124C156.589 41.2032 156.154 41.2441 155.643 41.2441C155.171 41.2441 154.75 41.1817 154.382 41.0569C154.013 40.9321 153.703 40.7547 153.451 40.5241C153.198 40.2934 153.006 40.0145 152.873 39.6873C152.741 39.3601 152.675 38.9907 152.675 38.5793C152.675 38.1802 152.736 37.8189 152.859 37.4948C152.982 37.1705 153.161 36.8931 153.397 36.6624C153.634 36.4317 153.923 36.2543 154.266 36.1295C154.608 36.005 154.996 35.9423 155.43 35.9423C156.303 35.9423 156.952 36.1793 157.379 36.6545C157.806 37.1299 158.02 37.7921 158.02 38.6416L154.246 39.0808ZM156.468 38.1022C156.468 37.6537 156.371 37.3202 156.177 37.1018C155.983 36.8836 155.711 36.7747 155.362 36.7747C155.181 36.7747 155.013 36.8073 154.857 36.8729C154.702 36.9382 154.568 37.0398 154.455 37.1766C154.342 37.3136 154.256 37.4834 154.198 37.6862C154.139 37.8888 154.117 38.1241 154.13 38.3923L156.468 38.1022ZM159.42 41.113V33.7734H161.069V41.113H159.42ZM164.419 34.6337C164.419 34.8207 164.329 34.9812 164.152 35.1152C163.974 35.2492 163.758 35.316 163.507 35.316C163.255 35.316 163.041 35.2492 162.866 35.1152C162.692 34.9812 162.605 34.8205 162.605 34.6337C162.605 34.4468 162.692 34.2861 162.866 34.1521C163.041 34.0182 163.255 33.9513 163.507 33.9513C163.758 33.9513 163.974 34.0182 164.152 34.1521C164.33 34.2861 164.419 34.4468 164.419 34.6337ZM162.692 41.113V36.0736H164.341V41.113H162.692ZM169.107 41.113H167.497L165.498 36.0736H167.264L168.195 39.0656C168.228 39.1654 168.252 39.2621 168.268 39.3555C168.284 39.4492 168.299 39.5331 168.312 39.6077C168.325 39.695 168.338 39.7822 168.351 39.8693H168.37C168.383 39.7884 168.399 39.7042 168.418 39.6171C168.431 39.5421 168.449 39.4568 168.472 39.3601C168.494 39.2634 168.522 39.1652 168.554 39.0654L169.515 36.0734H171.076L169.107 41.113ZM173.456 39.0808C173.585 39.8803 174.109 40.2809 175.028 40.2809C175.39 40.2809 175.715 40.2513 176.003 40.1923C176.291 40.1329 176.518 40.0688 176.686 40.0004L177.026 40.8729C176.806 40.96 176.517 41.0426 176.158 41.124C175.799 41.2032 175.364 41.2441 174.853 41.2441C174.381 41.2441 173.961 41.1817 173.592 41.0569C173.223 40.9323 172.913 40.7547 172.661 40.5241C172.409 40.2934 172.216 40.0145 172.083 39.6873C171.951 39.3601 171.885 38.9907 171.885 38.5793C171.885 38.1802 171.946 37.8189 172.069 37.4948C172.192 37.1705 172.371 36.8931 172.607 36.6624C172.843 36.4317 173.133 36.2543 173.475 36.1295C173.818 36.0048 174.206 35.9423 174.64 35.9423C175.513 35.9423 176.163 36.1793 176.589 36.6545C177.016 37.1299 177.23 37.7921 177.23 38.6416L173.456 39.0808ZM175.678 38.1022C175.678 37.6537 175.581 37.3202 175.387 37.1018C175.193 36.8836 174.921 36.7747 174.572 36.7747C174.391 36.7747 174.223 36.8073 174.067 36.8729C173.912 36.9382 173.778 37.0398 173.665 37.1766C173.551 37.3136 173.466 37.4834 173.408 37.6862C173.349 37.8888 173.327 38.1241 173.34 38.3923L175.678 38.1022ZM181.598 36.9619C181.372 36.8931 181.131 36.856 180.875 36.8494C180.62 36.8433 180.411 36.8742 180.25 36.9431V41.113H178.6V36.3166C178.906 36.1982 179.262 36.1063 179.669 36.0408C180.075 35.9752 180.573 35.9425 181.162 35.9425C181.291 35.9425 181.427 35.946 181.569 35.9519C181.712 35.9583 181.825 35.9675 181.909 35.98L181.598 36.9619ZM184.725 34.6337C184.725 34.8207 184.636 34.9812 184.458 35.1152C184.28 35.2492 184.065 35.316 183.813 35.316C183.561 35.316 183.347 35.2492 183.173 35.1152C182.998 34.9812 182.911 34.8205 182.911 34.6337C182.911 34.4468 182.998 34.2861 183.173 34.1521C183.347 34.0182 183.561 33.9513 183.813 33.9513C184.065 33.9513 184.28 34.0182 184.458 34.1521C184.636 34.2861 184.725 34.4468 184.725 34.6337ZM182.998 41.113V36.0736H184.647V41.113H182.998ZM189.714 41.113V37.5695C189.714 37.3079 189.612 37.1176 189.41 36.999C189.208 36.8806 188.954 36.8214 188.652 36.8214C188.505 36.8214 188.362 36.8326 188.228 36.854C188.092 36.876 187.981 36.9023 187.89 36.9336V41.1128H186.241V36.3164C186.532 36.2105 186.892 36.1217 187.319 36.05C187.748 35.9785 188.21 35.9423 188.71 35.9423C189.572 35.9423 190.229 36.0717 190.682 36.3304C191.137 36.5892 191.363 36.9959 191.363 37.5507V41.1128H189.714V41.113ZM198.031 41.1692C198.031 41.5244 197.961 41.8329 197.822 42.0947C197.683 42.3568 197.49 42.5734 197.245 42.7444C196.999 42.9159 196.71 43.0453 196.377 43.1325C196.044 43.2198 195.68 43.2637 195.285 43.2637C194.781 43.2637 194.33 43.2246 193.932 43.1468C193.534 43.069 193.216 42.9834 192.976 42.8898L193.394 41.9829C193.581 42.0638 193.825 42.134 194.126 42.1932C194.427 42.2524 194.733 42.282 195.043 42.282C195.528 42.282 195.876 42.1914 196.086 42.011C196.296 41.8303 196.401 41.5869 196.401 41.2819V41.0012C196.291 41.0514 196.139 41.0915 195.945 41.1229C195.751 41.154 195.522 41.1696 195.256 41.1696C194.888 41.1696 194.548 41.1117 194.238 40.9966C193.927 40.8812 193.66 40.7179 193.437 40.5058C193.214 40.294 193.039 40.0366 192.913 39.7344C192.787 39.4318 192.724 39.0907 192.724 38.7109C192.724 38.2929 192.789 37.9142 192.918 37.5746C193.047 37.2347 193.243 36.9435 193.505 36.7003C193.767 36.4574 194.094 36.2701 194.485 36.1394C194.876 36.0083 195.334 35.9429 195.858 35.9429C196.317 35.9429 196.74 35.9791 197.129 36.0506C197.517 36.1223 197.817 36.2109 198.031 36.317V41.1692H198.031ZM196.401 36.8869C196.33 36.8558 196.242 36.8277 196.139 36.8027C196.035 36.7777 195.91 36.7652 195.761 36.7652C195.302 36.7652 194.959 36.9244 194.732 37.2422C194.506 37.5601 194.392 38.0243 194.392 38.6354C194.392 39.7947 194.836 40.3743 195.722 40.3743C195.851 40.3743 195.978 40.3633 196.1 40.3418C196.223 40.3199 196.323 40.2903 196.401 40.2528V36.8869ZM210.166 37.8686C210.166 38.3363 210.103 38.7742 209.977 39.1821C209.851 39.5904 209.649 39.9476 209.371 40.2526C209.092 40.5583 208.733 40.7997 208.294 40.9773C207.854 41.1553 207.32 41.2441 206.693 41.2441C206.189 41.2441 205.741 41.208 205.35 41.1365C204.958 41.0648 204.627 40.9762 204.355 40.8701V34.9238C204.627 34.8179 204.947 34.7288 205.316 34.6571C205.684 34.5854 206.115 34.5497 206.606 34.5497C207.233 34.5497 207.773 34.6339 208.226 34.8023C208.679 34.9705 209.047 35.2027 209.332 35.4989C209.616 35.7947 209.827 36.1451 209.962 36.5508C210.098 36.9556 210.166 37.3952 210.166 37.8686ZM208.41 37.8406C208.41 37.0306 208.268 36.4398 207.983 36.0688C207.699 35.698 207.265 35.5127 206.683 35.5127C206.56 35.5127 206.444 35.5204 206.334 35.536C206.224 35.5513 206.13 35.575 206.053 35.6059V40.1313C206.124 40.1559 206.219 40.1793 206.339 40.2015C206.459 40.2232 206.58 40.2337 206.703 40.2337C206.994 40.2337 207.246 40.1886 207.459 40.0984C207.673 40.0079 207.851 39.866 207.993 39.673C208.135 39.4799 208.241 39.2321 208.309 38.9297C208.376 38.6278 208.41 38.2644 208.41 37.8406ZM213.36 34.6337C213.36 34.8207 213.271 34.9812 213.093 35.1152C212.916 35.2492 212.7 35.316 212.448 35.316C212.196 35.316 211.983 35.2492 211.808 35.1152C211.633 34.9812 211.546 34.8205 211.546 34.6337C211.546 34.4468 211.634 34.2861 211.808 34.1521C211.983 34.0182 212.196 33.9513 212.448 33.9513C212.7 33.9513 212.916 34.0182 213.093 34.1521C213.271 34.2861 213.36 34.4468 213.36 34.6337ZM211.633 41.113V36.0736H213.283V41.113H211.633ZM219.989 41.1692C219.989 41.5244 219.919 41.8329 219.78 42.0947C219.641 42.3568 219.449 42.5734 219.203 42.7444C218.957 42.9159 218.668 43.0453 218.335 43.1325C218.002 43.2198 217.638 43.2637 217.244 43.2637C216.739 43.2637 216.288 43.2246 215.89 43.1468C215.493 43.069 215.174 42.9834 214.935 42.8898L215.352 41.9829C215.539 42.0638 215.784 42.134 216.084 42.1932C216.385 42.2524 216.691 42.282 217.001 42.282C217.486 42.282 217.834 42.1914 218.044 42.011C218.254 41.8303 218.359 41.5869 218.359 41.2819V41.0012C218.249 41.0514 218.098 41.0915 217.903 41.1229C217.709 41.154 217.48 41.1696 217.215 41.1696C216.846 41.1696 216.507 41.1117 216.196 40.9966C215.886 40.8812 215.619 40.7179 215.396 40.5058C215.173 40.294 214.998 40.0366 214.871 39.7344C214.746 39.4318 214.683 39.0907 214.683 38.7109C214.683 38.2929 214.747 37.9142 214.876 37.5746C215.006 37.2347 215.202 36.9435 215.464 36.7003C215.725 36.4574 216.052 36.2701 216.443 36.1394C216.835 36.0083 217.292 35.9429 217.816 35.9429C218.276 35.9429 218.699 35.9791 219.087 36.0506C219.475 36.1223 219.775 36.2109 219.989 36.317V41.1692H219.989ZM218.359 36.8869C218.288 36.8558 218.201 36.8277 218.097 36.8027C217.994 36.7777 217.868 36.7652 217.719 36.7652C217.26 36.7652 216.917 36.9244 216.691 37.2422C216.464 37.5601 216.351 38.0243 216.351 38.6354C216.351 39.7947 216.794 40.3743 217.68 40.3743C217.809 40.3743 217.936 40.3633 218.059 40.3418C218.181 40.3199 218.281 40.2903 218.359 40.2528V36.8869ZM223.319 34.6337C223.319 34.8207 223.23 34.9812 223.052 35.1152C222.874 35.2492 222.659 35.316 222.407 35.316C222.155 35.316 221.941 35.2492 221.767 35.1152C221.592 34.9812 221.505 34.8205 221.505 34.6337C221.505 34.4468 221.592 34.2861 221.767 34.1521C221.941 34.0182 222.155 33.9513 222.407 33.9513C222.659 33.9513 222.874 34.0182 223.052 34.1521C223.23 34.2861 223.319 34.4468 223.319 34.6337ZM221.592 41.113V36.0736H223.241V41.113H221.592ZM227.978 41.0944C227.907 41.1255 227.799 41.1567 227.653 41.188C227.508 41.2192 227.335 41.2347 227.134 41.2347C226.809 41.2347 226.533 41.1939 226.306 41.113C226.079 41.0321 225.889 40.9247 225.741 40.7887C225.59 40.6547 225.482 40.5008 225.412 40.3263C225.344 40.15 225.311 39.9662 225.311 39.7728V36.9527H224.564V36.0736H225.311V34.9891L226.96 34.6244V36.0736H227.979V36.9527H226.96V39.6623C226.96 39.8555 227.015 40.0098 227.125 40.1221C227.235 40.2342 227.397 40.2903 227.61 40.2903C227.681 40.2903 227.743 40.2844 227.794 40.2717C227.847 40.2592 227.908 40.2436 227.979 40.2247V41.0944H227.978ZM234.054 40.8698C233.802 40.9819 233.474 41.0725 233.069 41.1409C232.665 41.2095 232.202 41.2439 231.677 41.2439C230.791 41.2439 230.128 41.1064 229.689 40.8324C229.249 40.558 229.029 40.1622 229.029 39.645C229.029 39.3084 229.123 39.031 229.31 38.8126C229.498 38.5949 229.75 38.417 230.067 38.2798C230.384 38.1429 230.754 38.0381 231.178 37.9666C231.602 37.8949 232.046 37.8403 232.512 37.8028V37.5507C232.512 37.2702 232.408 37.0784 232.202 36.9757C231.994 36.8729 231.716 36.8214 231.367 36.8214C231.076 36.8214 230.785 36.8512 230.494 36.9102C230.203 36.9696 229.957 37.0398 229.757 37.1205L229.407 36.3164C229.621 36.2355 229.922 36.153 230.31 36.0686C230.698 35.9844 231.154 35.9423 231.678 35.9423C232.02 35.9423 232.337 35.975 232.628 36.0405C232.919 36.1061 233.17 36.212 233.38 36.3585C233.591 36.5047 233.755 36.6966 233.875 36.9336C233.995 37.1702 234.055 37.457 234.055 37.7934V40.8698H234.054ZM232.512 38.4387C232.227 38.4637 231.965 38.4982 231.726 38.5416C231.487 38.5854 231.283 38.6493 231.114 38.7337C230.947 38.8174 230.816 38.9282 230.722 39.0654C230.628 39.2025 230.581 39.377 230.581 39.5891C230.581 39.8945 230.688 40.1155 230.901 40.2526C231.114 40.3901 231.406 40.4585 231.774 40.4585C231.936 40.4585 232.078 40.446 232.201 40.421C232.324 40.396 232.427 40.3648 232.512 40.3274V38.4387H232.512ZM235.648 41.113V33.7734H237.297V41.113H235.648ZM246.968 41.113H245.513L243.078 34.6806H244.931L246.105 38.5137C246.137 38.6071 246.165 38.7021 246.187 38.7988C246.21 38.8953 246.228 38.9843 246.24 39.0654C246.26 39.1588 246.276 39.2494 246.289 39.3365H246.309C246.321 39.2494 246.338 39.1586 246.357 39.0654C246.389 38.9036 246.435 38.7196 246.493 38.5137L247.696 34.6806H249.374L246.968 41.113ZM251.317 39.0808C251.446 39.8803 251.97 40.2809 252.889 40.2809C253.251 40.2809 253.576 40.2513 253.864 40.1923C254.152 40.1329 254.379 40.0688 254.548 40.0004L254.887 40.8729C254.667 40.96 254.378 41.0426 254.019 41.124C253.66 41.2032 253.225 41.2441 252.714 41.2441C252.242 41.2441 251.822 41.1817 251.453 41.0569C251.084 40.9321 250.774 40.7547 250.522 40.5241C250.27 40.2934 250.077 40.0145 249.944 39.6873C249.812 39.3601 249.746 38.9907 249.746 38.5793C249.746 38.1802 249.807 37.8189 249.93 37.4948C250.053 37.1705 250.232 36.8931 250.469 36.6624C250.704 36.4317 250.994 36.2543 251.337 36.1295C251.679 36.005 252.067 35.9423 252.501 35.9423C253.374 35.9423 254.024 36.1793 254.45 36.6545C254.877 37.1299 255.091 37.7921 255.091 38.6416L251.317 39.0808ZM253.539 38.1022C253.539 37.6537 253.442 37.3202 253.248 37.1018C253.054 36.8836 252.782 36.7747 252.433 36.7747C252.252 36.7747 252.084 36.8073 251.929 36.8729C251.773 36.9382 251.639 37.0398 251.526 37.1766C251.413 37.3136 251.327 37.4834 251.269 37.6862C251.21 37.8888 251.188 38.1241 251.201 38.3923L253.539 38.1022ZM256.491 41.113V33.7734H258.14V41.113H256.491ZM265.05 38.5885C265.05 38.9749 264.991 39.3303 264.875 39.6544C264.759 39.9787 264.584 40.2572 264.351 40.4912C264.119 40.7247 263.831 40.9084 263.488 41.0426C263.145 41.1766 262.747 41.2439 262.295 41.2439C261.842 41.2439 261.444 41.1766 261.102 41.0426C260.758 40.9087 260.471 40.7249 260.238 40.4912C260.005 40.2572 259.829 39.9785 259.709 39.6544C259.59 39.3301 259.53 38.9746 259.53 38.5885C259.53 38.2083 259.59 37.8563 259.709 37.532C259.829 37.2077 260.005 36.9275 260.238 36.6907C260.471 36.4539 260.758 36.2697 261.102 36.139C261.444 36.0079 261.842 35.9425 262.295 35.9425C262.747 35.9425 263.145 36.0081 263.488 36.139C263.831 36.2697 264.118 36.4539 264.351 36.6907C264.584 36.9275 264.759 37.2077 264.875 37.532C264.992 37.8563 265.05 38.2083 265.05 38.5885ZM263.381 38.5793C263.381 38.3484 263.363 38.1272 263.328 37.9156C263.293 37.7035 263.234 37.518 263.153 37.359C263.073 37.2003 262.962 37.074 262.823 36.9803C262.685 36.8869 262.508 36.8402 262.295 36.8402C262.081 36.8402 261.905 36.8869 261.766 36.9803C261.627 37.074 261.515 37.2003 261.431 37.359C261.347 37.5182 261.287 37.7035 261.252 37.9156C261.217 38.1274 261.198 38.3486 261.198 38.5793C261.198 38.8098 261.217 39.0282 261.252 39.2336C261.287 39.4393 261.347 39.62 261.431 39.7761C261.515 39.9318 261.629 40.0548 261.771 40.1454C261.913 40.2359 262.088 40.2809 262.295 40.2809C262.508 40.2809 262.685 40.2357 262.823 40.1454C262.962 40.055 263.073 39.9318 263.153 39.7761C263.234 39.62 263.292 39.4395 263.328 39.2336C263.363 39.0282 263.381 38.8098 263.381 38.5793ZM270.301 40.8698C270.172 40.9694 269.981 41.0569 269.729 41.1314C269.476 41.2064 269.156 41.2439 268.768 41.2439C268.406 41.2439 268.07 41.1845 267.759 41.0659C267.449 40.9477 267.18 40.7731 266.954 40.5425C266.727 40.3118 266.55 40.0329 266.42 39.7057C266.291 39.3786 266.226 39.0029 266.226 38.5791C266.226 38.1552 266.294 37.7796 266.43 37.4522C266.566 37.1251 266.75 36.8492 266.983 36.6249C267.216 36.4006 267.486 36.2306 267.793 36.1155C268.101 36.0002 268.425 35.9423 268.768 35.9423C269.137 35.9423 269.444 35.9785 269.69 36.05C269.935 36.1217 270.133 36.2102 270.282 36.3164L269.942 37.1018C269.858 37.0518 269.753 37.0036 269.627 36.9571C269.5 36.9102 269.35 36.8869 269.176 36.8869C268.768 36.8869 268.458 37.0317 268.245 37.3218C268.031 37.6114 267.924 38.021 267.924 38.5508C267.924 39.0806 268.037 39.4937 268.264 39.7897C268.49 40.0859 268.788 40.2335 269.156 40.2335C269.324 40.2335 269.473 40.2133 269.603 40.1732C269.732 40.1322 269.842 40.0811 269.932 40.0186L270.301 40.8698ZM273.301 34.6337C273.301 34.8207 273.212 34.9812 273.035 35.1152C272.857 35.2492 272.641 35.316 272.39 35.316C272.137 35.316 271.924 35.2492 271.749 35.1152C271.575 34.9812 271.488 34.8205 271.488 34.6337C271.488 34.4468 271.575 34.2861 271.749 34.1521C271.924 34.0182 272.137 33.9513 272.39 33.9513C272.641 33.9513 272.857 34.0182 273.035 34.1521C273.212 34.2861 273.301 34.4468 273.301 34.6337ZM271.575 41.113V36.0736H273.224V41.113H271.575ZM277.961 41.0944C277.889 41.1255 277.781 41.1567 277.636 41.188C277.49 41.2192 277.317 41.2347 277.117 41.2347C276.791 41.2347 276.515 41.1939 276.289 41.113C276.061 41.0321 275.872 40.9247 275.723 40.7887C275.573 40.6547 275.464 40.5008 275.395 40.3263C275.327 40.15 275.293 39.9662 275.293 39.7728V36.9527H274.546V36.0736H275.293V34.9891L276.942 34.6244V36.0736H277.961V36.9527H276.942V39.6623C276.942 39.8555 276.997 40.0098 277.107 40.1221C277.217 40.2342 277.379 40.2903 277.592 40.2903C277.663 40.2903 277.725 40.2844 277.777 40.2717C277.829 40.2592 277.89 40.2436 277.961 40.2247V41.0944H277.961ZM281.601 43.1231H279.845L280.835 41.113L278.817 36.0736H280.573L281.485 39.0937C281.517 39.1994 281.543 39.3007 281.563 39.3974C281.582 39.4939 281.598 39.5796 281.611 39.6546C281.624 39.7417 281.634 39.8259 281.64 39.9068H281.66C281.666 39.8259 281.679 39.7417 281.699 39.6546C281.712 39.5796 281.731 39.4941 281.757 39.3974C281.783 39.3009 281.812 39.1996 281.844 39.0937L282.853 36.0736H284.396L281.601 43.1231Z" fill="white"/>
<path fill-rule="evenodd" clip-rule="evenodd" d="M207.137 23.6252H206.337L200.582 14.1597L200.523 14.188L200.553 28.9573H195.783L195.803 9.48828H202.351L207.049 17.5638L207.137 17.5644L207.225 17.5638L211.923 9.48828H218.471L218.491 28.9573H213.721L213.751 14.188L213.692 14.1597L207.937 23.6252H207.137Z" fill="white"/>
</g>
<defs>
<clipPath id="clip0_196_3">
<rect width="284.402" height="50" fill="white"/>
</clipPath>
</defs>
</svg>
